<svg width="17" height="17" viewBox="0 0 17 17" fill="none" xmlns="http://www.w3.org/2000/svg">
<path d="M8.45303 3.99809C6.1985 3.99809 4.37999 5.8166 4.37999 8.07113C4.37999 10.3257 6.1985 12.1442 8.45303 12.1442C10.7076 12.1442 12.5261 10.3257 12.5261 8.07113C12.5261 5.8166 10.7076 3.99809 8.45303 3.99809ZM8.45303 10.7191C6.9961 10.7191 5.80503 9.53162 5.80503 8.07113C5.80503 6.61065 6.99255 5.42312 8.45303 5.42312C9.91352 5.42312 11.101 6.61065 11.101 8.07113C11.101 9.53162 9.90997 10.7191 8.45303 10.7191ZM13.6427 3.83148C13.6427 4.35967 13.2173 4.78151 12.6927 4.78151C12.1645 4.78151 11.7427 4.35612 11.7427 3.83148C11.7427 3.30684 12.168 2.88146 12.6927 2.88146C13.2173 2.88146 13.6427 3.30684 13.6427 3.83148ZM16.3403 4.79568C16.2801 3.52308 15.9894 2.39581 15.0571 1.46706C14.1284 0.538308 13.0011 0.24763 11.7285 0.183822C10.4169 0.10938 6.48564 0.10938 5.17404 0.183822C3.90498 0.244085 2.77772 0.534763 1.84542 1.46352C0.91312 2.39227 0.625987 3.51953 0.562179 4.79214C0.487737 6.10374 0.487737 10.035 0.562179 11.3466C0.622442 12.6192 0.91312 13.7465 1.84542 14.6752C2.77772 15.604 3.90144 15.8946 5.17404 15.9584C6.48564 16.0329 10.4169 16.0329 11.7285 15.9584C13.0011 15.8982 14.1284 15.6075 15.0571 14.6752C15.9859 13.7465 16.2765 12.6192 16.3403 11.3466C16.4148 10.035 16.4148 6.10728 16.3403 4.79568ZM14.6459 12.7539C14.3694 13.4487 13.8341 13.984 13.1358 14.264C12.0901 14.6788 9.60866 14.583 8.45303 14.583C7.29741 14.583 4.81246 14.6752 3.77028 14.264C3.07548 13.9875 2.54021 13.4522 2.26017 12.7539C1.84542 11.7082 1.94113 9.22676 1.94113 8.07113C1.94113 6.91551 1.84896 4.43056 2.26017 3.38838C2.53667 2.69358 3.07194 2.15831 3.77028 1.87826C4.81601 1.46352 7.29741 1.55923 8.45303 1.55923C9.60866 1.55923 12.0936 1.46706 13.1358 1.87826C13.8306 2.15476 14.3659 2.69004 14.6459 3.38838C15.0607 4.43411 14.9649 6.91551 14.9649 8.07113C14.9649 9.22676 15.0607 11.7117 14.6459 12.7539Z" fill="white"/>
</svg>
