<svg width="30" height="30" viewBox="0 0 30 30" fill="none" xmlns="http://www.w3.org/2000/svg">
<path d="M14.9753 7.66263C10.7691 7.66263 7.37627 10.9825 7.37627 15.0983C7.37627 19.2142 10.7691 22.5341 14.9753 22.5341C19.1816 22.5341 22.5744 19.2142 22.5744 15.0983C22.5744 10.9825 19.1816 7.66263 14.9753 7.66263ZM14.9753 19.9325C12.2571 19.9325 10.0349 17.7646 10.0349 15.0983C10.0349 12.4321 12.2505 10.2642 14.9753 10.2642C17.7001 10.2642 19.9157 12.4321 19.9157 15.0983C19.9157 17.7646 17.6935 19.9325 14.9753 19.9325ZM24.6576 7.35847C24.6576 8.32272 23.864 9.09283 22.8852 9.09283C21.8998 9.09283 21.1127 8.31625 21.1127 7.35847C21.1127 6.4007 21.9064 5.62412 22.8852 5.62412C23.864 5.62412 24.6576 6.4007 24.6576 7.35847ZM29.6906 9.11871C29.5782 6.79546 29.0359 4.73753 27.2965 3.04201C25.5637 1.34648 23.4606 0.815824 21.0863 0.699338C18.6393 0.563437 11.3048 0.563437 8.85772 0.699338C6.49005 0.809353 4.38692 1.34001 2.64754 3.03554C0.908158 4.73106 0.372456 6.78899 0.253411 9.11224C0.114525 11.5067 0.114525 18.6835 0.253411 21.078C0.365842 23.4012 0.908158 25.4592 2.64754 27.1547C4.38692 28.8502 6.48343 29.3809 8.85772 29.4974C11.3048 29.6333 18.6393 29.6333 21.0863 29.4974C23.4606 29.3873 25.5637 28.8567 27.2965 27.1547C29.0292 25.4592 29.5716 23.4012 29.6906 21.078C29.8295 18.6835 29.8295 11.5132 29.6906 9.11871ZM26.5293 23.6472C26.0134 24.9156 25.0148 25.8927 23.7119 26.404C21.7609 27.1612 17.1314 26.9864 14.9753 26.9864C12.8193 26.9864 8.18313 27.1547 6.23873 26.404C4.94246 25.8992 3.94381 24.922 3.42133 23.6472C2.64754 21.7381 2.82611 17.208 2.82611 15.0983C2.82611 12.9886 2.65415 8.45215 3.42133 6.54954C3.93719 5.28113 4.93585 4.30394 6.23873 3.7927C8.18975 3.03554 12.8193 3.21027 14.9753 3.21027C17.1314 3.21027 21.7675 3.04201 23.7119 3.7927C25.0082 4.29747 26.0068 5.27466 26.5293 6.54954C27.3031 8.45862 27.1245 12.9886 27.1245 15.0983C27.1245 17.208 27.3031 21.7445 26.5293 23.6472Z" fill="black"/>
</svg>
