<svg width="30" height="30" viewBox="0 0 30 30" fill="none" xmlns="http://www.w3.org/2000/svg">
<path d="M29.2684 2.5641C29.472 1.43122 29.2684 0.597412 28.2888 0.597412H25.0473C24.2218 0.597412 23.842 1.3134 23.6384 2.11095C23.6384 2.11095 21.9874 8.73606 19.6539 13.032C18.9 14.2736 18.5533 14.6724 18.1405 14.6724C17.9369 14.6724 17.6232 14.2736 17.6232 13.1407V2.5641C17.6232 1.20464 17.392 0.597412 16.7096 0.597412H11.6135C11.0962 0.597412 10.788 1.23183 10.788 1.82093C10.788 3.10789 11.9547 3.40697 12.0758 7.0322V14.899C12.0758 16.6209 11.8886 16.9382 11.4759 16.9382C10.3752 16.9382 7.70056 10.2858 6.11558 2.67286C5.79639 1.19558 5.48269 0.597412 4.65168 0.597412H1.41018C0.485608 0.597412 0.298492 1.3134 0.298492 2.11095C0.298492 3.52479 1.39917 10.5487 5.42215 19.8293C8.10231 26.1644 11.8776 29.5993 15.3118 29.5993C17.3755 29.5993 17.6287 28.838 17.6287 27.5238C17.6287 21.4697 17.4416 20.8987 18.4762 20.8987C18.955 20.8987 19.7805 21.2975 21.7067 24.3518C23.9081 27.977 24.2713 29.5993 25.504 29.5993H28.7456C29.6701 29.5993 30.1379 28.838 29.8682 27.3335C29.2519 24.1705 25.0858 17.6632 24.8987 17.2282C24.4199 16.2131 24.5575 15.76 24.8987 14.8536C24.9042 14.8446 28.8611 5.67274 29.2684 2.5641Z" fill="black"/>
</svg>
