<svg width="17" height="17" viewBox="0 0 17 17" fill="none" xmlns="http://www.w3.org/2000/svg">
<path d="M16.1417 1.15617C16.2516 0.531167 16.1417 0.071167 15.613 0.071167H13.8635C13.418 0.071167 13.2131 0.466167 13.1032 0.906167C13.1032 0.906167 12.2121 4.56117 10.9527 6.93117C10.5458 7.61617 10.3587 7.83617 10.1359 7.83617C10.026 7.83617 9.85668 7.61617 9.85668 6.99117V1.15617C9.85668 0.406167 9.73193 0.071167 9.36362 0.071167H6.61318C6.33398 0.071167 6.16764 0.421167 6.16764 0.746167C6.16764 1.45617 6.79733 1.62117 6.86268 3.62117V7.96117C6.86268 8.91117 6.76169 9.08617 6.53892 9.08617C5.94487 9.08617 4.50134 5.41617 3.64591 1.21617C3.47363 0.401167 3.30433 0.071167 2.85582 0.071167H1.10635C0.607351 0.071167 0.506363 0.466167 0.506363 0.906167C0.506363 1.68617 1.10041 5.56117 3.27166 10.6812C4.71817 14.1762 6.75575 16.0712 8.60918 16.0712C9.72302 16.0712 9.85965 15.6512 9.85965 14.9262C9.85965 11.5862 9.75866 11.2712 10.3171 11.2712C10.5755 11.2712 11.021 11.4912 12.0606 13.1762C13.2487 15.1762 13.4447 16.0712 14.1101 16.0712H15.8595C16.3585 16.0712 16.611 15.6512 16.4655 14.8212C16.1328 13.0762 13.8843 9.48617 13.7833 9.24617C13.5249 8.68617 13.5992 8.43617 13.7833 7.93617C13.7863 7.93117 15.9219 2.87117 16.1417 1.15617Z" fill="white"/>
</svg>
